HIERARCHY
ROOT __0
{
	OFFSET 0.0 0.0 0.0
	CHANNELS 0
	JOINT Spine1
	{
		OFFSET 0.000000 0.000000 2.000000
		CHANNELS 6 Xposition Yposition Zposition Zrotation Yrotation Xrotation
		JOINT Spine2
		{
			OFFSET 0.000000 0.500000 1.000000
			CHANNELS 3 Zrotation Yrotation Xrotation
			JOINT Shoulder.R
			{
				OFFSET 0.000000 -0.500000 1.000000
				CHANNELS 3 Zrotation Yrotation Xrotation
				JOINT UpperArm.R
				{
					OFFSET 1.000000 0.000000 0.100000
					CHANNELS 3 Zrotation Yrotation Xrotation
					JOINT LowerArm.R
					{
						OFFSET 0.000000 1.000000 -1.100000
						CHANNELS 3 Zrotation Yrotation Xrotation
						JOINT Hand.R
						{
							OFFSET 0.000000 -1.000000 -0.500000
							CHANNELS 3 Zrotation Yrotation Xrotation
							End Site
							{
								OFFSET 0.000000 -0.500000 0.000000
							}
						}
					}
				}
			}
			JOINT Shoulder.L
			{
				OFFSET 0.000000 -0.500000 1.000000
				CHANNELS 3 Zrotation Yrotation Xrotation
				JOINT UpperArm.L
				{
					OFFSET -1.000000 0.000000 0.100000
					CHANNELS 3 Zrotation Yrotation Xrotation
					JOINT LowerArm.L
					{
						OFFSET 0.000000 1.000000 -1.100000
						CHANNELS 3 Zrotation Yrotation Xrotation
						JOINT Hand.L
						{
							OFFSET 0.000000 -1.000000 -0.500000
							CHANNELS 3 Zrotation Yrotation Xrotation
							End Site
							{
								OFFSET 0.000000 -0.500000 0.000000
							}
						}
					}
				}
			}
		}
	}
	JOINT UpperLeg.R
	{
		OFFSET 0.000000 0.000000 2.000000
		CHANNELS 6 Xposition Yposition Zposition Zrotation Yrotation Xrotation
		JOINT LowerLeg.R
		{
			OFFSET 1.000000 1.000000 -1.000000
			CHANNELS 3 Zrotation Yrotation Xrotation
			JOINT Foot.R
			{
				OFFSET 0.000000 -0.500000 -1.000000
				CHANNELS 3 Zrotation Yrotation Xrotation
				End Site
				{
					OFFSET 0.000000 -1.000000 0.000000
				}
			}
		}
	}
	JOINT UpperLeg.L
	{
		OFFSET 0.000000 0.000000 2.000000
		CHANNELS 6 Xposition Yposition Zposition Zrotation Yrotation Xrotation
		JOINT LowerLeg.L
		{
			OFFSET -1.000000 1.000000 -1.000000
			CHANNELS 3 Zrotation Yrotation Xrotation
			JOINT Foot.L
			{
				OFFSET 0.000000 -0.500000 -1.000000
				CHANNELS 3 Zrotation Yrotation Xrotation
				End Site
				{
					OFFSET 0.000000 -1.000000 0.000000
				}
			}
		}
	}
}
MOTION
Frames: 9
Frame Time: 0.041667
0.000000 0.000000 2.000000 0.000000 0.000000 -0.000000 0.000000 0.000000 0.000000 -0.000000 0.000000 -0.000000 -0.000001 0.000001 0.000000 -0.000000 0.000001 -0.000003 -0.000000 0.000000 -0.000001 0.000000 -0.000000 -0.000000 0.000001 -0.000001 0.000000 0.000001 0.000003 -0.000000 0.000001 0.000002 0.000001 0.000000 0.000000 2.000000 -0.000001 0.000001 0.000002 -0.000003 0.000000 0.000002 -0.000002 0.000000 0.000000 0.000000 0.000000 2.000000 0.000001 -0.000001 0.000002 0.000003 -0.000000 0.000002 0.000002 -0.000000 0.000000 
-0.000000 0.000000 1.991427 0.000000 0.000000 -0.000000 0.000000 0.000000 0.000000 -0.000000 0.000000 -0.000000 -0.000001 0.000001 0.000000 -0.000000 0.000001 -0.000003 -0.000000 0.000000 -0.000001 0.000000 -0.000000 -0.000000 0.000001 -0.000001 0.000000 0.000001 0.000003 -0.000000 0.000001 0.000002 0.000001 -0.000495 0.000989 1.991921 0.276909 -0.086550 0.436362 -0.059149 0.026622 -0.017285 -0.045724 -0.000040 -0.140823 0.000495 0.000989 1.991921 -0.041982 0.162776 -0.282793 0.108970 -0.025219 -0.560486 0.060200 0.005520 -0.375842 
-0.000000 0.000000 1.968450 0.000000 0.000000 -0.000000 0.000000 0.000000 0.000000 -0.000000 0.000000 -0.000000 -0.000001 0.000001 0.000000 -0.000000 0.000001 -0.000003 -0.000000 0.000000 -0.000001 0.000000 -0.000000 -0.000000 0.000001 -0.000001 0.000000 0.000001 0.000003 -0.000000 0.000001 0.000002 0.000001 -0.001731 0.003463 1.970181 1.011743 -0.338347 1.609538 -0.227341 0.107076 -0.083551 -0.173860 -0.000687 -0.545001 0.001731 0.003463 1.970181 -0.157474 0.600251 -1.040559 0.402525 -0.087595 -2.064617 0.221428 0.022261 -1.383608 
-0.000000 0.000000 1.935185 0.000000 0.000000 -0.000000 0.000000 0.000000 0.000000 -0.000000 0.000000 -0.000000 -0.000001 0.000001 0.000000 -0.000000 0.000001 -0.000003 -0.000000 0.000000 -0.000001 0.000000 -0.000000 -0.000000 0.000001 -0.000001 0.000000 0.000001 0.000003 -0.000000 0.000001 0.000002 0.000001 -0.003339 0.006679 1.938525 2.057779 -0.748868 3.314067 -0.490863 0.241981 -0.220628 -0.370855 -0.003357 -1.185128 0.003339 0.006679 1.938524 -0.332954 1.235495 -2.137823 0.830928 -0.164319 -4.246525 0.454445 0.051541 -2.843632 
-0.000000 0.000000 1.895748 0.000000 0.000000 -0.000000 0.000000 0.000000 0.000000 -0.000000 0.000000 -0.000000 -0.000001 0.000001 0.000000 -0.000000 0.000001 -0.000003 -0.000000 0.000000 -0.000001 0.000000 -0.000000 -0.000000 0.000001 -0.000001 0.000000 0.000001 0.000003 -0.000000 0.000001 0.000002 0.000001 -0.004947 0.009894 1.900695 3.266218 -1.306908 5.342670 -0.836298 0.431493 -0.450603 -0.623136 -0.009927 -2.033823 0.004947 0.009894 1.900695 -0.553554 1.991565 -3.438771 1.342902 -0.234147 -6.837735 0.729801 0.093963 -4.575512 
-0.000000 0.000000 1.854252 0.000000 0.000000 -0.000000 0.000000 0.000000 0.000000 -0.000000 0.000000 -0.000000 -0.000001 0.000001 0.000000 -0.000000 0.000001 -0.000003 -0.000000 0.000000 -0.000001 0.000000 -0.000000 -0.000000 0.000001 -0.000001 0.000000 0.000001 0.000003 -0.000000 0.000001 0.000002 0.000001 -0.006184 0.012368 1.860436 4.489642 -1.986591 7.488114 -1.250629 0.675235 -0.795707 -0.917072 -0.022312 -3.063706 0.006184 0.012368 1.860436 -0.799325 2.792511 -4.806381 1.884715 -0.282572 -9.566216 1.018073 0.147580 -6.397970 
-0.000000 0.000000 1.814815 0.000000 0.000000 -0.000000 0.000000 0.000000 0.000000 -0.000000 0.000000 -0.000000 -0.000001 0.000001 0.000000 -0.000000 0.000001 -0.000003 -0.000000 0.000000 -0.000001 0.000000 -0.000000 -0.000000 0.000001 -0.000001 0.000000 0.000001 0.000003 -0.000000 0.000001 0.000002 0.000001 -0.006679 0.013357 1.821493 5.586291 -2.743256 9.546439 -1.721349 0.972268 -1.278306 -1.238970 -0.042120 -4.247414 0.006679 0.013357 1.821493 -1.043362 3.564394 -6.102047 2.400964 -0.304633 -12.158281 1.290271 0.206989 -8.129361 
-0.000000 0.000000 1.781550 0.000000 0.000000 -0.000000 0.000000 0.000000 0.000000 -0.000000 0.000000 -0.000000 -0.000001 0.000001 0.000000 -0.000000 0.000001 -0.000003 -0.000000 0.000000 -0.000001 0.000000 -0.000000 -0.000000 0.000001 -0.000001 0.000000 0.000001 0.000003 -0.000000 0.000001 0.000002 0.000001 -0.006060 0.012120 1.787610 6.423490 -3.515151 11.319825 -2.236545 1.321095 -1.920820 -1.575101 -0.070380 -5.557613 0.006060 0.012120 1.787610 -1.251794 4.235845 -7.185616 2.836188 -0.305084 -14.341570 1.518239 0.263439 -9.588595 
-0.000000 0.000000 1.758573 0.000000 0.000000 -0.000000 0.000000 0.000000 0.000000 -0.000000 0.000000 -0.000000 -0.000001 0.000001 0.000000 -0.000000 0.000001 -0.000003 -0.000000 0.000000 -0.000001 0.000000 -0.000000 -0.000000 0.000001 -0.000001 0.000000 0.000001 0.000003 -0.000000 0.000001 0.000002 0.000001 -0.003958 0.007915 1.762531 6.878572 -4.230057 12.617338 -2.784950 1.719714 -2.745630 -1.911721 -0.107307 -6.967021 0.003958 0.007915 1.762531 -1.385532 4.737784 -7.915814 3.136149 -0.295735 -15.846985 1.674709 0.305778 -10.595626 
